PathFileType	4	(X/Y/Z)	C:\Users\WrightLab\Desktop\Jo\P5V124.trc
DataRate	CameraRate	NumFrames	NumMarkers	Units	OrigDataRate	OrigDataStartFrame	OrigNumFrames
100.00	100.00	       78	19	mm	100.00	547	       624
Frame#	Time	Headset_Front			Headset_Back			Headset_Left			Headset_Right			Left_Shoulder			Right_Shoulder			Sternum			C7			Left Elbow			Right Elbow			Left Wrist			Right Wrist			Left ASIS			Right ASIS			S2			Left Knee			Right Knee			Left Ankle			Right Ankle			
		X1	Y1	Z1	X2	Y2	Z2	X3	Y3	Z3	X4	Y4	Z4	X5	Y5	Z5	X6	Y6	Z6	X7	Y7	Z7	X8	Y8	Z8	X9	Y9	Z9	X10	Y10	Z10	X11	Y11	Z11	X12	Y12	Z12	X13	Y13	Z13	X14	Y14	Z14	X15	Y15	Z15	X16	Y16	Z16	X17	Y17	Z17	X18	Y18	Z18	X19	Y19	Z19	

547	5.460																															-432.77371	994.81219	1570.16418													-506.73541	502.71542	1762.56592				-744.02948	183.66507	1590.71265				
548	5.470																															-434.19949	996.78577	1571.50659													-500.67984	505.03384	1771.79395				-738.57184	189.64981	1598.45398				
549	5.480																															-433.97202	997.00201	1571.63147													-491.06781	508.10773	1778.95728				-732.90381	196.79152	1601.65771				
550	5.490																															-437.25922	998.23346	1572.34680													-479.46997	511.05414	1782.34277				-728.69403	204.82124	1608.46655				
551	5.500																															-440.08768	999.37567	1573.45618													-468.10730	514.61212	1787.41492										
552	5.510																															-440.58600	1002.45441	1574.97314													-456.66324	515.62341	1789.79797										
553	5.520																															-441.79559	1004.09448	1575.20715													-445.27954	518.15900	1793.96252										
554	5.530																															-444.20956	1005.26892	1576.99194													-434.37637	518.26825	1796.28870										
555	5.540																															-449.04193	1004.41345	1579.28137													-422.91711	519.40607	1798.25745										
556	5.550																															-452.32440	1005.92688	1580.78979													-413.16544	521.59338	1798.01929										
557	5.560																															-454.17096	1007.98779	1582.12671													-404.34793	524.30908	1797.74146										
558	5.570																															-457.24130	1009.73535	1584.17212													-397.39713	527.58405	1799.65320										
559	5.580																															-460.54575	1011.90332	1585.45630													-390.26172	530.27765	1800.25281										
560	5.590																															-462.87842	1013.02045	1588.06982													-382.94385	534.25909	1796.95679										
561	5.600																															-465.87866	1014.66925	1589.70703													-377.26215	536.74878	1797.55151										
562	5.610																															-468.70871	1016.91876	1591.59485													-371.49332	540.95569	1795.45203										
563	5.620																															-471.31082	1018.42780	1593.68567													-367.71295	544.97260	1794.79504										
564	5.630																															-474.10294	1019.84882	1595.42639													-363.52426	546.53210	1792.73022										
565	5.640																															-475.83490	1021.30566	1596.23242													-360.41647	550.26624	1791.29224										
566	5.650																															-480.64597	1022.51935	1600.15247													-358.32211	553.46173	1789.45862										
567	5.660																															-483.43698	1023.92767	1601.07629													-356.70886	554.87268	1788.34949										
568	5.670																															-486.79703	1024.15381	1603.14307													-355.93192	556.76068	1786.69727										
569	5.680																															-489.64099	1024.64136	1605.16675													-355.82196	557.08087	1786.61768										
570	5.690																																														-356.28568	558.89282	1783.56982										
571	5.700																																														-356.03317	559.14862	1785.76746										
572	5.710																																														-354.97769	558.77234	1787.16895										
573	5.720																																														-354.23358	559.16791	1786.47998										
574	5.730																																														-353.43073	559.56805	1788.56714										
575	5.740																																														-352.63290	557.43567	1792.38367										
576	5.750																																														-352.01923	557.56769	1795.68384										
577	5.760																																														-352.01639	558.22021	1797.07495										
578	5.770																																														-352.48892	557.08960	1801.97449										
579	5.780																																														-353.52509	555.11456	1806.85071										
580	5.790																																														-354.02039	554.27130	1808.52051										
581	5.800																																														-355.07944	552.66754	1813.98425										
582	5.810																																														-356.33383	552.39825	1815.64575										
583	5.820																																														-358.24139	551.12579	1816.95837										
584	5.830																																														-360.05420	548.16144	1821.09167										
585	5.840																																														-361.60397	547.02649	1822.52039										
586	5.850																																														-363.62894	545.35120	1824.03113										
587	5.860																																														-365.09882	540.48016	1827.31226										
588	5.870																																														-367.14340	538.83850	1829.18701										
589	5.880																																														-368.94653	535.50598	1829.18958										
590	5.890																																														-370.55249	532.96429	1829.28174										
591	5.900																																														-372.40689	531.06989	1830.10938										
592	5.910																																														-372.98459	530.64990	1830.25464										
593	5.920																																														-372.53613	531.87946	1830.00256										
594	5.930																																														-370.35635	534.44006	1828.89587										
595	5.940																																														-369.14352	536.50079	1830.81836										
596	5.950																																														-366.43631	538.91614	1829.11682										
597	5.960																																														-364.16260	538.82172	1828.80029										
598	5.970																																														-361.73318	539.05066	1829.07385										
599	5.980																																														-359.65140	539.65082	1828.29700										
600	5.990																																														-357.25458	538.59833	1829.57080										
601	6.000																																														-354.58331	539.12018	1828.15503										
602	6.010																																														-352.77103	538.68146	1827.71826										
603	6.020																																														-350.57053	539.54553	1825.61670										
604	6.030																																														-348.85764	539.84772	1824.78967										
605	6.040																																														-347.36050	540.62360	1823.37463										
606	6.050																																														-346.04843	541.74390	1820.99841										
607	6.060																																														-345.33054	543.30927	1818.45679										
608	6.070																																														-344.83997	543.61005	1816.78088										
609	6.080																																														-344.28665	544.64661	1813.98499										
610	6.090																																														-344.14365	545.16486	1811.83264										
611	6.100																																														-344.01041	545.08417	1811.09106										
612	6.110																																														-343.63470	545.00122	1810.20532										
613	6.120																																														-343.03726	544.55518	1808.74573										
614	6.130																																														-341.92377	545.62335	1802.73840										
615	6.140																																														-341.08002	545.81146	1801.92590										
616	6.150																																														-341.03363	545.94940	1800.89331										
617	6.160																																														-340.83212	546.49591	1799.07336										
618	6.170																																														-340.52542	547.36670	1797.73279										
619	6.180																																														-340.10660	547.52429	1794.93005										
620	6.190																																														-340.26587	547.44379	1793.59302										
621	6.200																																														-340.12369	547.36438	1793.44727										
622	6.210																																														-340.18326	547.86212	1792.40100										
623	6.220																																														-340.93674	548.97546	1791.90356										
624	6.230																																														-343.04327	548.55591	1793.26892										
